<svg xmlns="http://www.w3.org/2000/svg" width="16.3333" height="23.3379" viewBox="23.3379" fill="none">
<g id="wrapper" style="transform: translate(-5.833px, -2.3334px);">
<path id="Vector" d="M18.6664 2.3335H9.33302C8.40476 2.3335 7.51452 2.70225 6.85814 3.35862C6.20177 4.015 5.83302 4.90524 5.83302 5.8335V24.5002C5.8322 24.7057 5.88572 24.9079 5.98816 25.0861C6.0906 25.2644 6.23831 25.4124 6.41635 25.5152C6.59371 25.6176 6.79489 25.6715 6.99968 25.6715C7.20448 25.6715 7.40566 25.6176 7.58302 25.5152L13.9997 21.8052L20.4164 25.5152C20.5942 25.6159 20.7953 25.6682 20.9997 25.6668C21.2041 25.6682 21.4052 25.6159 21.583 25.5152C21.7611 25.4124 21.9088 25.2644 22.0112 25.0861C22.1136 24.9079 22.1672 24.7057 22.1664 24.5002V5.8335C22.1664 4.90524 21.7976 4.015 21.1412 3.35862C20.4848 2.70225 19.5946 2.3335 18.6664 2.3335ZM19.833 22.4818L14.583 19.4485C14.4057 19.3461 14.2045 19.2922 13.9997 19.2922C13.7949 19.2922 13.5937 19.3461 13.4164 19.4485L8.16635 22.4818V5.8335C8.16635 5.52408 8.28927 5.22733 8.50806 5.00854C8.72685 4.78975 9.0236 4.66683 9.33302 4.66683H18.6664C18.9758 4.66683 19.2725 4.78975 19.4913 5.00854C19.7101 5.22733 19.833 5.52408 19.833 5.8335V22.4818Z" fill="#868687"/>
</g>
</svg>