<svg width="270" height="87" viewBox="0 0 270 87" fill="none" xmlns="http://www.w3.org/2000/svg">
<path d="M0 0V47.5195H9.1084V15.8398L29.7656 47.5195H38.874V0H29.7656V31.6797L9.1084 0H0Z" fill="black"/>
<path fill-rule="evenodd" clip-rule="evenodd" d="M52.3389 46.167C55.1328 47.7285 58.3564 48.5098 62.0078 48.5098C65.4404 48.5098 68.5967 47.6084 71.4795 45.8037C74.3828 44 76.5059 41.4697 77.8477 38.2139L68.8721 35.6396C68.2119 37.0918 67.2549 38.2031 66.001 38.9727C64.7471 39.7432 63.2402 40.1279 61.4805 40.1279C58.6855 40.1279 56.5635 39.2256 55.1113 37.4219C54.0635 36.085 53.3994 34.3467 53.1191 32.208H78.1455C78.5186 27.8965 78.0791 24.1445 76.8252 20.9551C75.5713 17.7646 73.6348 15.29 71.0166 13.5303C68.3994 11.7695 65.2197 10.8896 61.4805 10.8896C57.96 10.8896 54.8467 11.6934 52.1406 13.2988C49.4346 14.8828 47.3125 17.1162 45.7725 19.998C44.2324 22.8799 43.4619 26.2676 43.4619 30.1621C43.4619 33.7256 44.2432 36.8936 45.8047 39.666C47.3887 42.416 49.5674 44.583 52.3389 46.167ZM68.4629 22.9326C68.3428 22.5928 68.209 22.2764 68.0625 21.9834C67.8984 21.6553 67.7168 21.3564 67.5186 21.0869C66.375 19.4814 64.4941 18.6777 61.876 18.6777C58.8184 18.6777 56.5635 19.6133 55.1113 21.4834C54.7119 22 54.3682 22.5859 54.0801 23.2412C53.7773 23.9307 53.5361 24.6973 53.3564 25.542H69.0625C68.9277 24.5566 68.7285 23.6865 68.4629 22.9326Z" fill="black"/>
<path fill-rule="evenodd" clip-rule="evenodd" d="M92.2119 48.5098C90.9258 48.5098 89.7383 48.3877 88.6475 48.1416C87.5742 47.8994 86.5947 47.5381 85.7109 47.0576C83.9512 46.0684 82.6084 44.7588 81.6846 43.1309C81.3262 42.4746 81.0391 41.792 80.8223 41.083C80.4951 40.0107 80.332 38.8779 80.332 37.6855C80.332 36.0361 80.585 34.5293 81.0908 33.165C81.5967 31.8008 82.4111 30.6016 83.5332 29.5684C84.6768 28.5117 86.2061 27.6318 88.1201 26.9277C89.4395 26.4443 91.0127 26.0146 92.8389 25.6406C93.626 25.4795 94.458 25.3223 95.3359 25.1689C96.0654 25.042 96.8262 24.918 97.6182 24.7959C98.082 24.7246 98.5566 24.6543 99.043 24.585L103.361 23.9287C103.343 23.7666 103.32 23.6094 103.294 23.4551C103.259 23.249 103.216 23.0508 103.167 22.8604C103.111 22.6426 103.047 22.4336 102.973 22.2354C102.723 21.5625 102.369 21.0039 101.914 20.5586C100.901 19.5693 99.208 19.0742 96.832 19.0742C96.1631 19.0742 95.4805 19.1562 94.7842 19.3193C94.1055 19.4785 93.4131 19.7158 92.707 20.0312C91.2764 20.6689 90.2754 21.8018 89.7041 23.4297L81.5859 20.8564C82.4883 17.9082 84.1816 15.5098 86.668 13.6621C89.1533 11.8145 92.542 10.8896 96.832 10.8896C99.9775 10.8896 102.771 11.374 105.214 12.3418C107.656 13.3096 109.504 14.9824 110.758 17.3584C111.105 18.0098 111.383 18.6621 111.591 19.3145C111.805 19.9824 111.945 20.6504 112.012 21.3184C112.075 21.9551 112.124 22.627 112.157 23.335C112.192 24.0957 112.21 24.8975 112.21 25.7402V47.5195H104.355V43.1455C102.938 44.8164 101.431 46.0762 99.835 46.9258C97.833 47.9824 95.292 48.5098 92.2119 48.5098ZM94.126 41.4482C94.9219 41.4482 95.6562 41.3818 96.3301 41.248C97.0527 41.1055 97.7041 40.8857 98.2842 40.5898C99.4277 39.9961 100.33 39.3252 100.99 38.5771C101.672 37.8291 102.134 37.2021 102.376 36.6963C102.838 35.7275 103.102 34.6064 103.168 33.3301C103.205 32.7842 103.234 32.2783 103.255 31.8096L103.268 31.502L103.279 31.2031L103.244 31.209C101.781 31.459 100.523 31.6816 99.4717 31.8779C98.293 32.082 97.2764 32.2754 96.4229 32.458C96.082 32.5303 95.7676 32.6006 95.4785 32.6699C94.4668 32.9121 93.5762 33.1758 92.8057 33.4619L92.6279 33.5342C92.54 33.5703 92.4541 33.6074 92.3701 33.6445C92.1777 33.7295 91.9941 33.8164 91.8193 33.9053C91.374 34.1309 90.9883 34.3682 90.6611 34.6172C90.1328 35.0127 89.7363 35.4531 89.4727 35.9365C89.2305 36.4209 89.1094 36.96 89.1094 37.5537C89.1094 38.3682 89.3076 39.0723 89.7041 39.666C90.1221 40.2383 90.7051 40.6777 91.4531 40.9863C92.2012 41.2939 93.0918 41.4482 94.126 41.4482Z" fill="black"/>
<path d="M118.15 11.8799V47.5195H127.192V29.3037C127.192 27.9404 127.379 26.7188 127.753 25.6406C128.127 24.541 128.678 23.5947 129.403 22.8027C130.129 21.9893 131.021 21.3398 132.076 20.8564C133.132 20.3496 134.31 20.0527 135.607 19.9648C136.577 19.8848 137.457 19.916 138.249 20.0605L138.453 20.1006L138.607 20.1348C138.766 20.1719 138.921 20.2148 139.072 20.2617V11.8799C137.994 11.748 136.916 11.7256 135.838 11.8145C135.272 11.8486 134.716 11.917 134.169 12.0176C133.673 12.1094 133.185 12.2285 132.703 12.375C131.691 12.6611 130.756 13.0684 129.898 13.5957C128.776 14.2559 127.83 15.0918 127.061 16.1035C126.696 16.583 126.366 17.0859 126.07 17.6143V11.8799H118.15Z" fill="black"/>
<path d="M175.471 47.5195V28.1816L159.235 0H169.729L180.025 17.8857L190.321 0H200.815L184.579 28.1816V47.5195H175.471Z" fill="black"/>
<path fill-rule="evenodd" clip-rule="evenodd" d="M204.103 46.1006C206.809 47.707 209.955 48.5098 213.541 48.5098C217.104 48.5098 220.239 47.7178 222.945 46.1338C225.673 44.5283 227.796 42.3174 229.314 39.501C230.854 36.6631 231.625 33.3965 231.625 29.7002C231.625 26.0264 230.865 22.7812 229.348 19.9648C227.83 17.127 225.707 14.9053 222.979 13.2988C220.272 11.6934 217.126 10.8896 213.541 10.8896C210.021 10.8896 206.907 11.6816 204.202 13.2656C201.496 14.8496 199.373 17.0605 197.833 19.8994C196.292 22.7148 195.522 25.9824 195.522 29.7002C195.522 33.374 196.271 36.6299 197.767 39.4678C199.285 42.2842 201.396 44.4951 204.103 46.1006ZM219.976 37.2236C218.567 39.1602 216.422 40.1279 213.541 40.1279C210.747 40.1279 208.624 39.1934 207.171 37.3232C205.741 35.4307 205.026 32.8896 205.026 29.7002L205.027 29.5C205.029 29.3105 205.033 29.123 205.041 28.9375L205.052 28.6592L205.064 28.4424C205.073 28.3154 205.082 28.1895 205.093 28.0635C205.172 27.1211 205.322 26.2383 205.543 25.416C205.651 25.0146 205.776 24.6279 205.917 24.2549C206.533 22.6934 207.468 21.4717 208.723 20.5918C209.402 20.1143 210.186 19.7666 211.072 19.5488C211.42 19.4629 211.784 19.3975 212.164 19.3516C212.602 19.2988 213.061 19.2725 213.541 19.2725C216.378 19.2725 218.512 20.2178 219.942 22.1104C221.395 24.002 222.121 26.5322 222.121 29.7002C222.121 32.7578 221.405 35.2656 219.976 37.2236Z" fill="black"/>
<path d="M242.66 47.0908C244.414 48.0332 246.681 48.5068 249.462 48.5098H255.171C257.951 48.5068 260.218 48.0332 261.972 47.0908C263.732 46.1445 265.107 44.9453 266.097 43.4941C267.065 42.042 267.758 40.5352 268.176 38.9727C268.594 37.3887 268.847 35.9482 268.935 34.6494C269.023 33.3516 269.067 32.4062 269.067 31.8115L269.067 25.251H259.959V28.6436C259.959 29.0156 259.95 29.4355 259.932 29.9033L259.919 29.8975L259.917 30.2432L259.888 30.8145C259.871 31.1201 259.851 31.4414 259.827 31.7783C259.739 33.0332 259.464 34.2979 259.002 35.5742C258.604 36.6748 257.992 37.6201 257.168 38.4092C256.866 38.667 256.555 38.8916 256.236 39.082C255.776 39.3574 255.299 39.5635 254.804 39.6992C253.956 39.9316 253.159 40.0527 252.413 40.0615H252.219C251.474 40.0527 250.676 39.9316 249.828 39.6992C249.58 39.6309 249.335 39.5459 249.096 39.4424C248.927 39.3691 248.761 39.2871 248.597 39.1973C248.443 39.1133 248.291 39.0215 248.141 38.9219C247.911 38.7686 247.686 38.5977 247.464 38.4092C246.64 37.6201 246.029 36.6748 245.63 35.5742C245.587 35.4551 245.546 35.3359 245.506 35.2168C245.38 34.8408 245.27 34.4668 245.177 34.0928C244.983 33.3174 244.859 32.5459 244.805 31.7783C244.781 31.4258 244.76 31.0908 244.742 30.7725L244.715 30.2432L244.713 29.8975L244.701 29.9033C244.683 29.4355 244.673 29.0156 244.673 28.6436L244.673 25.251H235.565L235.565 31.8115C235.565 32.0361 235.572 32.3115 235.584 32.6367C235.595 32.9199 235.611 33.2412 235.631 33.6006C235.649 33.9199 235.671 34.2695 235.697 34.6494C235.785 35.9482 236.038 37.3887 236.456 38.9727C236.875 40.5352 237.567 42.042 238.535 43.4941C239.525 44.9453 240.9 46.1445 242.66 47.0908Z" fill="black"/>
<path d="M246.492 16.4014C246.492 19.418 244.046 21.8643 241.029 21.8643C238.011 21.8643 235.565 19.418 235.565 16.4014C235.565 13.3838 238.011 10.9375 241.029 10.9375C244.046 10.9375 246.492 13.3838 246.492 16.4014Z" fill="black"/>
<path d="M263.604 21.8643C266.622 21.8643 269.067 19.418 269.067 16.4014C269.067 13.3838 266.622 10.9375 263.604 10.9375C260.586 10.9375 258.141 13.3838 258.141 16.4014C258.141 19.418 260.586 21.8643 263.604 21.8643Z" fill="black"/>
<path d="M17.0524 82.5111V75.4791L11.1484 65.2311H14.9644L18.7084 71.7351L22.4524 65.2311H26.2684L20.3644 75.4791V82.5111H17.0524Z" fill="#0ABAB5"/>
<path d="M30.8958 82.8711C29.5917 82.8711 28.4478 82.5791 27.4638 81.9951C26.4798 81.4111 25.7118 80.6071 25.1597 79.5831C24.6158 78.5511 24.3438 77.3671 24.3438 76.0311C24.3438 74.6791 24.6238 73.4911 25.1838 72.4671C25.7438 71.4351 26.5158 70.6311 27.4998 70.0551C28.4838 69.4791 29.6157 69.1911 30.8958 69.1911C32.1997 69.1911 33.3438 69.4831 34.3278 70.0671C35.3198 70.6511 36.0917 71.4591 36.6437 72.4911C37.1957 73.5151 37.4718 74.6951 37.4718 76.0311C37.4718 77.3751 37.1918 78.5631 36.6318 79.5951C36.0798 80.6191 35.3078 81.4231 34.3158 82.0071C33.3317 82.5831 32.1918 82.8711 30.8958 82.8711ZM30.8958 79.8231C31.9437 79.8231 32.7238 79.4711 33.2358 78.7671C33.7558 78.0551 34.0158 77.1431 34.0158 76.0311C34.0158 74.8791 33.7518 73.9591 33.2238 73.2711C32.7038 72.5831 31.9278 72.2391 30.8958 72.2391C30.1837 72.2391 29.5997 72.3991 29.1437 72.7191C28.6877 73.0391 28.3478 73.4831 28.1238 74.0511C27.9078 74.6191 27.7998 75.2791 27.7998 76.0311C27.7998 77.1911 28.0598 78.1151 28.5798 78.8031C29.1077 79.4831 29.8797 79.8231 30.8958 79.8231Z" fill="#0ABAB5"/>
<path d="M43.9746 82.8951C42.9586 82.8951 42.1306 82.7231 41.4906 82.3791C40.8506 82.0351 40.3506 81.5991 39.9906 81.0711C39.6386 80.5431 39.3866 79.9951 39.2346 79.4271C39.0826 78.8511 38.9906 78.3271 38.9586 77.8551C38.9266 77.3831 38.9106 77.0391 38.9106 76.8231V69.5511H42.2226V75.6711C42.2226 75.9671 42.2386 76.3471 42.2706 76.8111C42.3026 77.2671 42.4026 77.7271 42.5706 78.1911C42.7386 78.6551 43.0106 79.0431 43.3866 79.3551C43.7706 79.6671 44.3106 79.8231 45.0066 79.8231C45.2866 79.8231 45.5866 79.7791 45.9066 79.6911C46.2266 79.6031 46.5266 79.4351 46.8066 79.1871C47.0866 78.9311 47.3146 78.5591 47.4906 78.0711C47.6746 77.5751 47.7666 76.9271 47.7666 76.1271L49.6386 77.0151C49.6386 78.0391 49.4306 78.9991 49.0146 79.8951C48.5986 80.7911 47.9706 81.5151 47.1306 82.0671C46.2986 82.6191 45.2466 82.8951 43.9746 82.8951ZM48.1746 82.5111V78.2151H47.7666V69.5511H51.0546V82.5111H48.1746Z" fill="#0ABAB5"/>
<path d="M53.4484 82.5111V69.5511H56.3284V72.7191L56.0164 72.3111C56.1844 71.8631 56.4084 71.4551 56.6884 71.0871C56.9684 70.7191 57.3124 70.4151 57.7204 70.1751C58.0324 69.9831 58.3724 69.8351 58.7404 69.7311C59.1084 69.6191 59.4884 69.5511 59.8804 69.5271C60.2724 69.4951 60.6644 69.5031 61.0564 69.5511V72.5991C60.6964 72.4871 60.2764 72.4511 59.7964 72.4911C59.3244 72.5231 58.8964 72.6311 58.5124 72.8151C58.1284 72.9911 57.8044 73.2271 57.5404 73.5231C57.2764 73.8111 57.0764 74.1551 56.9404 74.5551C56.8044 74.9471 56.7364 75.3911 56.7364 75.8871V82.5111H53.4484Z" fill="#0ABAB5"/>
<path d="M66.4638 82.5111V64.8711H69.7278V82.5111H66.4638Z" fill="#0ABAB5"/>
<path d="M78.1973 82.8711C76.8933 82.8711 75.7493 82.5791 74.7653 81.9951C73.7813 81.4111 73.0133 80.6071 72.4613 79.5831C71.9173 78.5511 71.6453 77.3671 71.6453 76.0311C71.6453 74.6791 71.9253 73.4911 72.4853 72.4671C73.0453 71.4351 73.8173 70.6311 74.8013 70.0551C75.7853 69.4791 76.9173 69.1911 78.1973 69.1911C79.5013 69.1911 80.6453 69.4831 81.6293 70.0671C82.6213 70.6511 83.3933 71.4591 83.9453 72.4911C84.4973 73.5151 84.7733 74.6951 84.7733 76.0311C84.7733 77.3751 84.4933 78.5631 83.9333 79.5951C83.3813 80.6191 82.6093 81.4231 81.6173 82.0071C80.6333 82.5831 79.4933 82.8711 78.1973 82.8711ZM78.1973 79.8231C79.2453 79.8231 80.0253 79.4711 80.5373 78.7671C81.0573 78.0551 81.3173 77.1431 81.3173 76.0311C81.3173 74.8791 81.0533 73.9591 80.5253 73.2711C80.0053 72.5831 79.2293 72.2391 78.1973 72.2391C77.4853 72.2391 76.9013 72.3991 76.4453 72.7191C75.9893 73.0391 75.6493 73.4831 75.4253 74.0511C75.2093 74.6191 75.1013 75.2791 75.1013 76.0311C75.1013 77.1911 75.3613 78.1151 75.8813 78.8031C76.4093 79.4831 77.1813 79.8231 78.1973 79.8231Z" fill="#0ABAB5"/>
<path d="M92.1642 82.8711C90.8202 82.8711 89.6682 82.5711 88.7082 81.9711C87.7482 81.3711 87.0122 80.5551 86.5002 79.5231C85.9882 78.4911 85.7322 77.3271 85.7322 76.0311C85.7322 74.7191 85.9962 73.5471 86.5242 72.5151C87.0602 71.4831 87.8122 70.6711 88.7802 70.0791C89.7482 69.4871 90.8922 69.1911 92.2122 69.1911C93.7402 69.1911 95.0202 69.5791 96.0522 70.3551C97.0922 71.1231 97.7562 72.1751 98.0442 73.5111L94.7802 74.3751C94.5882 73.7031 94.2522 73.1791 93.7722 72.8031C93.3002 72.4271 92.7642 72.2391 92.1642 72.2391C91.4762 72.2391 90.9122 72.4071 90.4722 72.7431C90.0322 73.0711 89.7082 73.5231 89.5002 74.0991C89.2922 74.6671 89.1882 75.3111 89.1882 76.0311C89.1882 77.1591 89.4362 78.0751 89.9322 78.7791C90.4362 79.4751 91.1802 79.8231 92.1642 79.8231C92.9002 79.8231 93.4602 79.6551 93.8442 79.3191C94.2282 78.9831 94.5162 78.5031 94.7082 77.8791L98.0442 78.5751C97.6762 79.9511 96.9802 81.0111 95.9562 81.7551C94.9322 82.4991 93.6682 82.8711 92.1642 82.8711Z" fill="#0ABAB5"/>
<path d="M102.85 82.8711C101.922 82.8711 101.134 82.6951 100.486 82.3431C99.846 81.9831 99.358 81.5071 99.022 80.9151C98.694 80.3151 98.53 79.6551 98.53 78.9351C98.53 78.3351 98.622 77.7871 98.806 77.2911C98.99 76.7951 99.286 76.3591 99.694 75.9831C100.11 75.5991 100.666 75.2791 101.362 75.0231C101.842 74.8471 102.414 74.6911 103.078 74.5551C103.742 74.4191 104.494 74.2911 105.334 74.1711C106.174 74.0431 107.098 73.9031 108.106 73.7511L106.93 74.3991C106.93 73.6311 106.746 73.0671 106.378 72.7071C106.01 72.3471 105.394 72.1671 104.53 72.1671C104.05 72.1671 103.55 72.2831 103.03 72.5151C102.51 72.7471 102.146 73.1591 101.938 73.7511L98.986 72.8151C99.314 71.7431 99.93 70.8711 100.834 70.1991C101.738 69.5271 102.97 69.1911 104.53 69.1911C105.674 69.1911 106.69 69.3671 107.578 69.7191C108.466 70.0711 109.138 70.6791 109.594 71.5431C109.85 72.0231 110.002 72.5031 110.05 72.9831C110.098 73.4631 110.122 73.9991 110.122 74.5911V82.5111H107.266V79.8471L107.674 80.3991C107.042 81.2711 106.358 81.9031 105.622 82.2951C104.894 82.6791 103.97 82.8711 102.85 82.8711ZM103.546 80.3031C104.146 80.3031 104.65 80.1991 105.058 79.9911C105.474 79.7751 105.802 79.5311 106.042 79.2591C106.29 78.9871 106.458 78.7591 106.546 78.5751C106.714 78.2231 106.81 77.8151 106.834 77.3511C106.866 76.8791 106.882 76.4871 106.882 76.1751L107.842 76.4151C106.874 76.5751 106.09 76.7111 105.49 76.8231C104.89 76.9271 104.406 77.0231 104.038 77.1111C103.67 77.1991 103.346 77.2951 103.066 77.3991C102.746 77.5271 102.486 77.6671 102.286 77.8191C102.094 77.9631 101.95 78.1231 101.854 78.2991C101.766 78.4751 101.722 78.6711 101.722 78.8871C101.722 79.1831 101.794 79.4391 101.938 79.6551C102.09 79.8631 102.302 80.0231 102.574 80.1351C102.846 80.2471 103.17 80.3031 103.546 80.3031Z" fill="#0ABAB5"/>
<path d="M112.522 82.5111V64.8711H115.786V82.5111H112.522Z" fill="#0ABAB5"/>
<path d="M127.092 82.8951C126.076 82.8951 125.248 82.7231 124.608 82.3791C123.968 82.0351 123.468 81.5991 123.108 81.0711C122.756 80.5431 122.504 79.9951 122.352 79.4271C122.2 78.8511 122.108 78.3271 122.076 77.8551C122.044 77.3831 122.028 77.0391 122.028 76.8231V69.5511H125.34V75.6711C125.34 75.9671 125.356 76.3471 125.388 76.8111C125.42 77.2671 125.52 77.7271 125.688 78.1911C125.856 78.6551 126.128 79.0431 126.504 79.3551C126.888 79.6671 127.428 79.8231 128.124 79.8231C128.404 79.8231 128.704 79.7791 129.024 79.6911C129.344 79.6031 129.644 79.4351 129.924 79.1871C130.204 78.9311 130.432 78.5591 130.608 78.0711C130.792 77.5751 130.884 76.9271 130.884 76.1271L132.756 77.0151C132.756 78.0391 132.548 78.9991 132.132 79.8951C131.716 80.7911 131.088 81.5151 130.248 82.0671C129.416 82.6191 128.364 82.8951 127.092 82.8951ZM131.292 82.5111V78.2151H130.884V69.5511H134.172V82.5111H131.292Z" fill="#0ABAB5"/>
<path d="M141.63 82.8711C139.998 82.8711 138.678 82.5031 137.67 81.7671C136.67 81.0231 136.062 79.9751 135.846 78.6231L139.182 78.1191C139.318 78.7271 139.618 79.2031 140.082 79.5471C140.554 79.8911 141.15 80.0631 141.87 80.0631C142.462 80.0631 142.918 79.9511 143.238 79.7271C143.558 79.4951 143.718 79.1751 143.718 78.7671C143.718 78.5111 143.654 78.3071 143.526 78.1551C143.398 77.9951 143.11 77.8391 142.662 77.6871C142.222 77.5351 141.534 77.3351 140.598 77.0871C139.542 76.8151 138.698 76.5111 138.066 76.1751C137.434 75.8391 136.978 75.4391 136.698 74.9751C136.418 74.5031 136.278 73.9351 136.278 73.2711C136.278 72.4391 136.49 71.7191 136.914 71.1111C137.338 70.4951 137.934 70.0231 138.702 69.6951C139.478 69.3591 140.39 69.1911 141.438 69.1911C142.454 69.1911 143.354 69.3471 144.138 69.6591C144.922 69.9711 145.554 70.4151 146.034 70.9911C146.522 71.5671 146.822 72.2471 146.934 73.0311L143.598 73.6311C143.542 73.1511 143.334 72.7711 142.974 72.4911C142.614 72.2111 142.126 72.0471 141.51 71.9991C140.91 71.9591 140.426 72.0391 140.058 72.2391C139.698 72.4391 139.518 72.7271 139.518 73.1031C139.518 73.3271 139.594 73.5151 139.746 73.6671C139.906 73.8191 140.23 73.9751 140.718 74.1351C141.214 74.2951 141.966 74.5031 142.974 74.7591C143.958 75.0151 144.746 75.3151 145.338 75.6591C145.938 75.9951 146.374 76.4031 146.646 76.8831C146.918 77.3551 147.054 77.9271 147.054 78.5991C147.054 79.9271 146.574 80.9711 145.614 81.7311C144.654 82.4911 143.326 82.8711 141.63 82.8711Z" fill="#0ABAB5"/>
<path d="M154.755 82.8711C153.427 82.8711 152.255 82.5871 151.239 82.0191C150.231 81.4431 149.439 80.6551 148.863 79.6551C148.295 78.6471 148.011 77.4951 148.011 76.1991C148.011 74.7831 148.291 73.5511 148.851 72.5031C149.411 71.4551 150.183 70.6431 151.167 70.0671C152.151 69.4831 153.283 69.1911 154.563 69.1911C155.923 69.1911 157.079 69.5111 158.031 70.1511C158.983 70.7911 159.687 71.6911 160.143 72.8511C160.599 74.0111 160.759 75.3751 160.623 76.9431H157.395V75.7431C157.395 74.4231 157.183 73.4751 156.759 72.8991C156.343 72.3151 155.659 72.0231 154.707 72.0231C153.595 72.0231 152.775 72.3631 152.247 73.0431C151.727 73.7151 151.467 74.7111 151.467 76.0311C151.467 77.2391 151.727 78.1751 152.247 78.8391C152.775 79.4951 153.547 79.8231 154.563 79.8231C155.203 79.8231 155.751 79.6831 156.207 79.4031C156.663 79.1231 157.011 78.7191 157.251 78.1911L160.515 79.1271C160.027 80.3111 159.255 81.2311 158.199 81.8871C157.151 82.5431 156.003 82.8711 154.755 82.8711ZM150.459 76.9431V74.5191H159.051V76.9431H150.459Z" fill="#0ABAB5"/>
<path d="M167.629 82.8711C166.437 82.8711 165.393 82.5711 164.497 81.9711C163.601 81.3711 162.901 80.5551 162.397 79.5231C161.901 78.4911 161.653 77.3271 161.653 76.0311C161.653 74.7111 161.905 73.5391 162.409 72.5151C162.921 71.4831 163.637 70.6711 164.557 70.0791C165.477 69.4871 166.557 69.1911 167.797 69.1911C169.029 69.1911 170.065 69.4911 170.905 70.0911C171.745 70.6911 172.381 71.5071 172.813 72.5391C173.245 73.5711 173.461 74.7351 173.461 76.0311C173.461 77.3271 173.241 78.4911 172.801 79.5231C172.369 80.5551 171.721 81.3711 170.857 81.9711C169.993 82.5711 168.917 82.8711 167.629 82.8711ZM168.157 79.9671C168.885 79.9671 169.465 79.8031 169.897 79.4751C170.337 79.1471 170.653 78.6871 170.845 78.0951C171.037 77.5031 171.133 76.8151 171.133 76.0311C171.133 75.2471 171.037 74.5591 170.845 73.9671C170.653 73.3751 170.345 72.9151 169.921 72.5871C169.505 72.2591 168.957 72.0951 168.277 72.0951C167.549 72.0951 166.949 72.2751 166.477 72.6351C166.013 72.9871 165.669 73.4631 165.445 74.0631C165.221 74.6551 165.109 75.3111 165.109 76.0311C165.109 76.7591 165.217 77.4231 165.433 78.0231C165.649 78.6151 165.981 79.0871 166.429 79.4391C166.877 79.7911 167.453 79.9671 168.157 79.9671ZM171.133 82.5111V73.6311H170.725V65.2311H174.013V82.5111H171.133Z" fill="#0ABAB5"/>
<path d="M195.857 82.5111V74.8551C195.857 73.9991 195.653 73.3351 195.245 72.8631C194.845 72.3831 194.29 72.1431 193.577 72.1431C193.122 72.1431 192.725 72.2511 192.389 72.4671C192.053 72.6751 191.79 72.9711 191.598 73.3551C191.414 73.7311 191.322 74.1671 191.322 74.6631L189.954 73.7511C189.954 72.8631 190.161 72.0791 190.577 71.3991C191.002 70.7191 191.566 70.1911 192.27 69.8151C192.982 69.4311 193.769 69.2391 194.633 69.2391C196.113 69.2391 197.23 69.6791 197.982 70.5591C198.742 71.4311 199.122 72.5751 199.122 73.9911V82.5111H195.857ZM180.234 82.5111V69.5511H183.113V73.8471H183.521V82.5111H180.234ZM188.057 82.5111V74.8551C188.057 73.9991 187.853 73.3351 187.445 72.8631C187.045 72.3831 186.489 72.1431 185.777 72.1431C185.097 72.1431 184.549 72.3791 184.133 72.8511C183.725 73.3151 183.521 73.9191 183.521 74.6631L182.154 73.7031C182.154 72.8551 182.366 72.0951 182.79 71.4231C183.214 70.7511 183.781 70.2191 184.493 69.8271C185.213 69.4351 186.018 69.2391 186.906 69.2391C187.922 69.2391 188.754 69.4551 189.402 69.8871C190.058 70.3191 190.542 70.8951 190.854 71.6151C191.166 72.3351 191.322 73.1271 191.322 73.9911V82.5111H188.057Z" fill="#0ABAB5"/>
<path d="M204.882 82.8711C203.954 82.8711 203.166 82.6951 202.518 82.3431C201.878 81.9831 201.39 81.5071 201.054 80.9151C200.726 80.3151 200.562 79.6551 200.562 78.9351C200.562 78.3351 200.654 77.7871 200.838 77.2911C201.022 76.7951 201.318 76.3591 201.726 75.9831C202.142 75.5991 202.698 75.2791 203.394 75.0231C203.874 74.8471 204.446 74.6911 205.11 74.5551C205.774 74.4191 206.526 74.2911 207.366 74.1711C208.206 74.0431 209.13 73.9031 210.138 73.7511L208.962 74.3991C208.962 73.6311 208.778 73.0671 208.41 72.7071C208.042 72.3471 207.426 72.1671 206.562 72.1671C206.082 72.1671 205.582 72.2831 205.062 72.5151C204.542 72.7471 204.178 73.1591 203.97 73.7511L201.018 72.8151C201.346 71.7431 201.962 70.8711 202.866 70.1991C203.77 69.5271 205.002 69.1911 206.562 69.1911C207.706 69.1911 208.722 69.3671 209.61 69.7191C210.498 70.0711 211.17 70.6791 211.626 71.5431C211.882 72.0231 212.034 72.5031 212.082 72.9831C212.13 73.4631 212.154 73.9991 212.154 74.5911V82.5111H209.298V79.8471L209.706 80.3991C209.074 81.2711 208.39 81.9031 207.654 82.2951C206.926 82.6791 206.002 82.8711 204.882 82.8711ZM205.578 80.3031C206.178 80.3031 206.682 80.1991 207.09 79.9911C207.506 79.7751 207.834 79.5311 208.074 79.2591C208.322 78.9871 208.49 78.7591 208.578 78.5751C208.746 78.2231 208.842 77.8151 208.866 77.3511C208.898 76.8791 208.914 76.4871 208.914 76.1751L209.874 76.4151C208.906 76.5751 208.122 76.7111 207.522 76.8231C206.922 76.9271 206.438 77.0231 206.07 77.1111C205.702 77.1991 205.378 77.2951 205.098 77.3991C204.778 77.5271 204.518 77.6671 204.318 77.8191C204.126 77.9631 203.982 78.1231 203.886 78.2991C203.798 78.4751 203.754 78.6711 203.754 78.8871C203.754 79.1831 203.826 79.4391 203.97 79.6551C204.122 79.8631 204.334 80.0231 204.606 80.1351C204.878 80.2471 205.202 80.3031 205.578 80.3031Z" fill="#0ABAB5"/>
<path d="M214.314 82.5111V69.5511H217.194V72.7191L216.882 72.3111C217.05 71.8631 217.274 71.4551 217.554 71.0871C217.834 70.7191 218.178 70.4151 218.586 70.1751C218.898 69.9831 219.238 69.8351 219.606 69.7311C219.974 69.6191 220.354 69.5511 220.746 69.5271C221.138 69.4951 221.53 69.5031 221.922 69.5511V72.5991C221.562 72.4871 221.142 72.4511 220.662 72.4911C220.19 72.5231 219.762 72.6311 219.378 72.8151C218.994 72.9911 218.67 73.2271 218.406 73.5231C218.142 73.8111 217.942 74.1551 217.806 74.5551C217.67 74.9471 217.602 75.3911 217.602 75.8871V82.5111H214.314Z" fill="#0ABAB5"/>
<path d="M223.221 82.5111L223.245 65.2311H226.557V75.7911L230.949 69.5511H234.981L230.301 76.0311L235.293 82.5111H231.045L226.557 76.2711V82.5111H223.221Z" fill="#0ABAB5"/>
<path d="M241.316 82.8711C239.988 82.8711 238.817 82.5871 237.801 82.0191C236.793 81.4431 236 80.6551 235.424 79.6551C234.856 78.6471 234.573 77.4951 234.573 76.1991C234.573 74.7831 234.853 73.5511 235.413 72.5031C235.973 71.4551 236.745 70.6431 237.729 70.0671C238.713 69.4831 239.844 69.1911 241.124 69.1911C242.484 69.1911 243.64 69.5111 244.592 70.1511C245.544 70.7911 246.248 71.6911 246.704 72.8511C247.16 74.0111 247.321 75.3751 247.185 76.9431H243.956V75.7431C243.956 74.4231 243.745 73.4751 243.321 72.8991C242.905 72.3151 242.221 72.0231 241.269 72.0231C240.157 72.0231 239.337 72.3631 238.809 73.0431C238.289 73.7151 238.029 74.7111 238.029 76.0311C238.029 77.2391 238.289 78.1751 238.809 78.8391C239.337 79.4951 240.108 79.8231 241.124 79.8231C241.764 79.8231 242.313 79.6831 242.769 79.4031C243.225 79.1231 243.573 78.7191 243.812 78.1911L247.077 79.1271C246.589 80.3111 245.816 81.2311 244.76 81.8871C243.712 82.5431 242.564 82.8711 241.316 82.8711ZM237.021 76.9431V74.5191H245.613V76.9431H237.021Z" fill="#0ABAB5"/>
<path d="M256.71 82.5111C255.814 82.6791 254.934 82.7511 254.07 82.7271C253.214 82.7111 252.446 82.5631 251.766 82.2831C251.094 81.9951 250.582 81.5351 250.23 80.9031C249.91 80.3111 249.742 79.7111 249.726 79.1031C249.71 78.4871 249.702 77.7911 249.702 77.0151V65.9511H252.966V76.8231C252.966 77.3271 252.97 77.7831 252.978 78.1911C252.994 78.5911 253.078 78.9111 253.23 79.1511C253.518 79.6071 253.978 79.8551 254.61 79.8951C255.242 79.9351 255.942 79.9031 256.71 79.7991V82.5111ZM247.494 72.0711V69.5511H256.71V72.0711H247.494Z" fill="#0ABAB5"/>
</svg>
